<?xml version="1.0" encoding="UTF-8" standalone="no"?>
<svg
   xmlns:svg="http://www.w3.org/2000/svg"
   xmlns="http://www.w3.org/2000/svg"
   xmlns:xlink="http://www.w3.org/1999/xlink"
   version="1.1"
   width="603.5069"
   height="603.5069"
   id="svg2">
  <defs>
    <linearGradient
       id="linearGradient3686">
      <stop
         id="stop3688"
         style="stop-color:#ffffff;stop-opacity:1"
         offset="0" />
      <stop
         id="stop3690"
         style="stop-color:#c9c9c9;stop-opacity:1"
         offset="1" />
    </linearGradient>
    <linearGradient
       x1="274.94315"
       y1="497.46448"
       x2="467.73352"
       y2="533.8493"
       id="linearGradient3692"
       xlink:href="#linearGradient3686"
       gradientUnits="userSpaceOnUse" />
  </defs>
  <g
     transform="translate(-68.159073,-232.12476)">
    <path
       d="m 152.54611,290.69765 c 0,0 37.38642,104.38891 37.38642,210.36357 0,105.97465 -70.97422,275.93975 -70.97422,275.93975 l 444.11864,0 c 0,0 -70.97421,-169.9651 -70.97421,-275.93975 0,-105.97466 37.38642,-210.36357 37.38642,-210.36357 l -376.94305,0 z"
       id="path2818"
       style="fill:url(#linearGradient3692);fill-opacity:1;stroke:#000000;stroke-width:20;stroke-linecap:butt;stroke-linejoin:miter;stroke-miterlimit:4;stroke-opacity:1;stroke-dasharray:none" />
    <g
       transform="matrix(0.42759835,0,0,0.42302655,512.74541,615.20922)"
       style="fill:#f1cd43;fill-opacity:1">
      <path
         d="M 264.33964,-111.81925 C 323.62695,36.157731 254.04363,204.94724 108.58457,265.99862 -36.874502,327.05 -203.61437,257.44894 -264.64541,110.20382 c -61.03101,-147.245117 6.55348,-316.86897 151.28093,-379.6855 144.727444,-62.8165 312.27748,4.75118 375.04346,151.24327"
         style="fill:#000000;fill-opacity:1;fill-rule:evenodd;stroke:#000000;stroke-width:20.85027122;stroke-linecap:round;stroke-linejoin:round;stroke-miterlimit:4;stroke-opacity:1;stroke-dasharray:none;stroke-dashoffset:0" />
      <circle
         cx="0"
         cy="0"
         r="50" />
      <path
         d="M 75,0 A 75,75 0 0 0 37.5,-64.952 L 125,-216.506 A 250,250 0 0 1 250,0 z"
         id="bld" />
      <use
         transform="matrix(-0.5,0.8660254,-0.8660254,-0.5,0,0)"
         x="0"
         y="0"
         width="1"
         height="1"
         xlink:href="#bld" />
      <use
         transform="matrix(-0.5,-0.8660254,0.8660254,-0.5,0,0)"
         x="0"
         y="0"
         width="1"
         height="1"
         xlink:href="#bld" />
    </g>
  </g>
</svg>
